PathFileType	4	(X/Y/Z)	D:\MotionData\NordSprintingStudy\Test 2\Edited\COP_Right_Board_FP3000001.trc
DataRate	CameraRate	NumFrames	NumMarkers	Units	OrigDataRate	OrigDataStartFrame	OrigNumFrames
200.00	200.00	     29	5	mm	200.00	11066	     17704
Frame#	Time	M1			M2			M3			M4			M5			
		X1	Y1	Z1	X2	Y2	Z2	X3	Y3	Z3	X4	Y4	Z4	X5	Y5	Z5	

11066	55.325	1706.69165	767.51196	439.07706	1646.88428	454.19946	473.23840	1629.59485	478.71381	671.60449	1596.07996	527.94672	1066.98132	1655.88757	842.09583	1032.19128	
11067	55.330	1706.06519	767.53656	439.09073	1647.02710	454.06787	473.18451	1629.40747	478.58856	671.51563	1595.57507	527.66376	1066.93176	1654.32349	841.97906	1032.31702	
11068	55.335	1705.44006	767.58679	439.08353	1647.21082	453.94568	473.12756	1629.32397	478.38629	671.45239	1595.03223	527.39081	1066.83813	1653.08728	841.83899	1032.30530	
11069	55.340	1704.91199	767.57581	439.12775	1647.38477	453.80627	473.04639	1629.24536	478.17676	671.39447	1594.44495	527.08783	1066.72351	1651.68494	841.63202	1032.28601	
11070	55.345	1704.30029	767.56799	439.16833	1647.54919	453.64383	473.00027	1629.12830	477.97137	671.32269	1593.85645	526.75397	1066.64319	1650.38098	841.43805	1032.26465	
11071	55.350	1703.69849	767.55609	439.22653	1647.65918	453.50943	472.92413	1629.05481	477.76492	671.22742	1593.26575	526.39929	1066.47876	1649.11877	841.23145	1032.24500	
11072	55.355	1703.13428	767.55548	439.24673	1647.77466	453.37201	472.85492	1629.01563	477.48605	671.17566	1592.67773	525.99103	1066.40234	1647.82446	841.01208	1032.27161	
11073	55.360	1702.61304	767.52795	439.30899	1647.84082	453.23508	472.82037	1628.86914	477.27789	671.08875	1592.08777	525.60480	1066.29395	1646.60669	840.74518	1032.28345	
11074	55.365	1702.10156	767.49451	439.36353	1647.94458	453.08841	472.69476	1628.71423	477.04459	671.01178	1591.38940	525.19135	1066.14673	1645.30701	840.44623	1032.28357	
11075	55.370	1701.57507	767.46167	439.40176	1648.00244	452.92426	472.62195	1628.51550	476.79849	670.94995	1590.69812	524.74677	1066.08850	1644.09766	840.12866	1032.31396	
11076	55.375	1701.05249	767.41827	439.46170	1648.05188	452.75546	472.56122	1628.34167	476.54724	670.80652	1590.06799	524.32178	1065.95056	1642.75842	839.78259	1032.35437	
11077	55.380	1700.49731	767.37451	439.53638	1648.10181	452.60391	472.44470	1628.14111	476.28250	670.71539	1589.32166	523.91980	1065.81079	1641.57776	839.45856	1032.33643	
11078	55.385	1699.91150	767.33545	439.57764	1648.15210	452.44379	472.36096	1627.95251	476.02139	670.60687	1588.67615	523.38220	1065.71570	1640.24182	839.06360	1032.38208	
11079	55.390	1699.37439	767.27539	439.66129	1648.20300	452.28165	472.28271	1627.75183	475.74002	670.48425	1587.99658	522.87341	1065.56165	1639.03430	838.66650	1032.41907	
11080	55.395	1698.86511	767.21564	439.73297	1648.16052	452.13779	472.12823	1627.57947	475.42587	670.38654	1587.32544	522.36188	1065.43738	1637.55688	838.19128	1032.36841	
11081	55.400	1698.29919	767.15887	439.79382	1648.22058	451.95117	472.02637	1627.40027	475.10306	670.26587	1586.69836	521.79523	1065.29150	1636.37622	837.79071	1032.49438	
11082	55.405	1697.60315	767.04999	439.74295	1648.35632	451.75494	472.01636	1627.20288	474.77100	670.17194	1586.02991	521.19458	1065.16553	1635.08472	837.33038	1032.51904	
11083	55.410	1697.01392	766.94751	439.82205	1648.46423	451.55136	471.89871	1627.02441	474.44077	670.06586	1585.25049	520.65216	1065.05029	1633.78064	836.83521	1032.57080	
11084	55.415	1696.54456	766.91620	440.07834	1648.51563	451.36407	471.78641	1626.82813	474.07880	669.98053	1584.65369	519.99457	1064.97742	1632.28577	836.28979	1032.56104	
11085	55.420	1695.99341	766.83557	440.15887	1648.58752	451.14426	471.70905	1626.68518	473.72925	669.84845	1583.98889	519.32391	1064.80811	1631.18860	835.84259	1032.72546	
11086	55.425	1695.33984	766.70105	440.13724	1648.67871	450.92908	471.60556	1626.47803	473.42459	669.72290	1583.37012	518.65137	1064.64331	1629.80554	835.28741	1032.82166	
11087	55.430	1694.79504	766.65320	440.36679	1648.75623	450.71741	471.50247	1626.39868	473.01071	669.62189	1582.79041	517.97156	1064.48340	1628.52441	834.70624	1032.85962	
11088	55.435	1694.18787	766.56189	440.47424	1648.90100	450.47372	471.37805	1626.29468	472.63980	669.52179	1582.12988	517.22577	1064.37073	1627.17456	834.14368	1032.95605	
11089	55.440	1693.57617	766.48254	440.57788	1649.07068	450.22165	471.27338	1626.18750	472.22861	669.43707	1581.53967	516.49976	1064.28516	1625.79858	833.53015	1033.02283	
11090	55.445	1692.96057	766.38184	440.69244	1649.24500	449.97513	471.17761	1626.13074	471.82883	669.30920	1580.96777	515.75854	1064.15051	1624.50879	832.89813	1033.15027	
11091	55.450	1692.31348	766.25702	440.80420	1649.41455	449.74677	471.06076	1626.09399	471.37131	669.15094	1580.45972	514.98102	1063.97729	1623.06006	832.25446	1033.25171	
11092	55.455	1691.66956	766.12506	440.93344	1649.57324	449.50101	470.95047	1626.01880	470.93893	669.02771	1579.96204	514.21411	1063.76880	1621.82520	831.62354	1033.31055	
11093	55.460	1691.08069	766.02399	441.03848	1649.72546	449.25888	470.85330	1625.93494	470.49982	668.91425	1579.38733	513.41034	1063.63806	1620.41931	830.95642	1033.41016	
11094	55.465	1690.40576	765.88977	441.15964	1649.92273	449.01294	470.72296	1625.87280	470.07248	668.74695	1578.88525	512.59766	1063.53906	1619.12610	830.27820	1033.46570	
